<mxfile host="app.diagrams.net" modified="2023-12-08T18:09:50.489Z" agent="Mozilla/5.0 (Windows NT 10.0; Win64; x64; rv:120.0) Gecko/20100101 Firefox/120.0" etag="yEJea0Of4z3HMBfEFhmG" version="22.1.7" type="github">
  <diagram name="Page-1" id="rBnmELckRUywtP9ieEaV">
    <mxGraphModel dx="1242" dy="779" grid="1" gridSize="10" guides="1" tooltips="1" connect="1" arrows="1" fold="1" page="1" pageScale="1" pageWidth="850" pageHeight="1100" math="0" shadow="0">
      <root>
        <mxCell id="0" />
        <mxCell id="1" parent="0" />
        <mxCell id="SdDzMsPOg0m-dAoGCJvg-25" value="&lt;font style=&quot;font-size: 16px;&quot;&gt;&amp;nbsp;&amp;nbsp;&amp;nbsp;&amp;nbsp;&amp;nbsp;&amp;nbsp;&amp;nbsp; Azure&lt;/font&gt;" style="rounded=0;whiteSpace=wrap;html=1;" vertex="1" parent="1">
          <mxGeometry x="120" y="40" width="660" height="440" as="geometry" />
        </mxCell>
        <mxCell id="SdDzMsPOg0m-dAoGCJvg-26" value="" style="rounded=0;whiteSpace=wrap;html=1;" vertex="1" parent="1">
          <mxGeometry x="170" y="60" width="250" height="400" as="geometry" />
        </mxCell>
        <mxCell id="SdDzMsPOg0m-dAoGCJvg-20" value="&lt;div&gt;&lt;br&gt;&lt;/div&gt;&lt;div&gt;&lt;br&gt;&lt;/div&gt;&lt;div&gt;&lt;br&gt;&lt;/div&gt;&lt;div&gt;&lt;br&gt;&lt;/div&gt;&lt;div&gt;&lt;br&gt;&lt;/div&gt;&lt;div&gt;&lt;br&gt;&lt;/div&gt;&lt;div&gt;&lt;br&gt;&lt;/div&gt;&lt;div&gt;&lt;br&gt;&lt;/div&gt;&lt;div&gt;&lt;font style=&quot;font-size: 16px;&quot;&gt;Web Browser&lt;/font&gt;&lt;/div&gt;" style="rounded=0;whiteSpace=wrap;html=1;" vertex="1" parent="1">
          <mxGeometry x="120" y="560" width="360" height="160" as="geometry" />
        </mxCell>
        <UserObject label="&lt;div style=&quot;font-size: 16px;&quot;&gt;&lt;font style=&quot;font-size: 16px;&quot;&gt;Contoso&lt;/font&gt;&lt;/div&gt;&lt;div style=&quot;font-size: 16px;&quot;&gt;&lt;font style=&quot;font-size: 16px;&quot;&gt;University.API&lt;/font&gt;&lt;/div&gt;" link="ContosoUniversity.Spa.React" id="SdDzMsPOg0m-dAoGCJvg-5">
          <mxCell style="rounded=0;whiteSpace=wrap;html=1;" vertex="1" parent="1">
            <mxGeometry x="200" y="360" width="200" height="80" as="geometry" />
          </mxCell>
        </UserObject>
        <UserObject label="&lt;div style=&quot;font-size: 16px;&quot;&gt;&lt;font style=&quot;font-size: 16px;&quot;&gt;Contoso&lt;/font&gt;&lt;/div&gt;&lt;div style=&quot;font-size: 16px;&quot;&gt;&lt;font style=&quot;font-size: 16px;&quot;&gt;University.Web&lt;/font&gt;&lt;/div&gt;" link="ContosoUniversity.Spa.React" id="SdDzMsPOg0m-dAoGCJvg-8">
          <mxCell style="rounded=0;whiteSpace=wrap;html=1;" vertex="1" parent="1">
            <mxGeometry x="200" y="590" width="200" height="80" as="geometry" />
          </mxCell>
        </UserObject>
        <UserObject label="&lt;div style=&quot;font-size: 16px;&quot;&gt;&lt;font style=&quot;font-size: 16px;&quot;&gt;Contoso&lt;/font&gt;&lt;/div&gt;&lt;div style=&quot;font-size: 16px;&quot;&gt;&lt;font style=&quot;font-size: 16px;&quot;&gt;University.Common&lt;/font&gt;&lt;/div&gt;" link="ContosoUniversity.Spa.React" id="SdDzMsPOg0m-dAoGCJvg-9">
          <mxCell style="rounded=0;whiteSpace=wrap;html=1;" vertex="1" parent="1">
            <mxGeometry x="200" y="230" width="200" height="80" as="geometry" />
          </mxCell>
        </UserObject>
        <UserObject label="&lt;div style=&quot;font-size: 16px;&quot;&gt;&lt;font style=&quot;font-size: 16px;&quot;&gt;Contoso&lt;/font&gt;&lt;/div&gt;&lt;div style=&quot;font-size: 16px;&quot;&gt;&lt;font style=&quot;font-size: 16px;&quot;&gt;University.Data&lt;/font&gt;&lt;/div&gt;" link="ContosoUniversity.Spa.React" id="SdDzMsPOg0m-dAoGCJvg-10">
          <mxCell style="rounded=0;whiteSpace=wrap;html=1;" vertex="1" parent="1">
            <mxGeometry x="200" y="100" width="200" height="80" as="geometry" />
          </mxCell>
        </UserObject>
        <UserObject label="&lt;div style=&quot;font-size: 16px;&quot;&gt;&lt;font style=&quot;font-size: 16px;&quot;&gt;Contoso&lt;/font&gt;&lt;/div&gt;&lt;div style=&quot;font-size: 16px;&quot;&gt;&lt;font style=&quot;font-size: 16px;&quot;&gt;University2020&lt;/font&gt;&lt;/div&gt;&lt;div style=&quot;font-size: 16px;&quot;&gt;&lt;font style=&quot;font-size: 16px;&quot;&gt;&lt;br&gt;&lt;/font&gt;&lt;/div&gt;&lt;div style=&quot;font-size: 16px;&quot;&gt;&lt;font style=&quot;font-size: 16px;&quot;&gt;Azure SQL Server&lt;br&gt;&lt;/font&gt;&lt;/div&gt;" link="ContosoUniversity.Spa.React" id="SdDzMsPOg0m-dAoGCJvg-12">
          <mxCell style="rounded=0;whiteSpace=wrap;html=1;" vertex="1" parent="1">
            <mxGeometry x="510" y="90" width="200" height="100" as="geometry" />
          </mxCell>
        </UserObject>
        <mxCell id="SdDzMsPOg0m-dAoGCJvg-15" value="" style="endArrow=classic;startArrow=classic;html=1;rounded=0;exitX=0.5;exitY=0;exitDx=0;exitDy=0;entryX=0.5;entryY=1;entryDx=0;entryDy=0;" edge="1" parent="1" source="SdDzMsPOg0m-dAoGCJvg-8" target="SdDzMsPOg0m-dAoGCJvg-5">
          <mxGeometry x="0.1667" y="30" width="50" height="50" relative="1" as="geometry">
            <mxPoint x="255" y="410" as="sourcePoint" />
            <mxPoint x="305" y="360" as="targetPoint" />
            <mxPoint as="offset" />
          </mxGeometry>
        </mxCell>
        <mxCell id="SdDzMsPOg0m-dAoGCJvg-24" value="&lt;font style=&quot;font-size: 16px;&quot;&gt;https&lt;/font&gt;" style="edgeLabel;html=1;align=center;verticalAlign=middle;resizable=0;points=[];" vertex="1" connectable="0" parent="SdDzMsPOg0m-dAoGCJvg-15">
          <mxGeometry x="0.2182" y="-1" relative="1" as="geometry">
            <mxPoint x="-31" y="21" as="offset" />
          </mxGeometry>
        </mxCell>
        <mxCell id="SdDzMsPOg0m-dAoGCJvg-16" value="" style="endArrow=classic;startArrow=classic;html=1;rounded=0;entryX=0.5;entryY=1;entryDx=0;entryDy=0;exitX=0.5;exitY=0;exitDx=0;exitDy=0;" edge="1" parent="1" source="SdDzMsPOg0m-dAoGCJvg-5" target="SdDzMsPOg0m-dAoGCJvg-9">
          <mxGeometry x="0.1667" y="30" width="50" height="50" relative="1" as="geometry">
            <mxPoint x="295" y="360" as="sourcePoint" />
            <mxPoint x="294.5" y="280" as="targetPoint" />
            <mxPoint as="offset" />
          </mxGeometry>
        </mxCell>
        <mxCell id="SdDzMsPOg0m-dAoGCJvg-17" value="" style="endArrow=classic;startArrow=classic;html=1;rounded=0;entryX=0.5;entryY=0;entryDx=0;entryDy=0;exitX=0.5;exitY=1;exitDx=0;exitDy=0;" edge="1" parent="1" source="SdDzMsPOg0m-dAoGCJvg-10" target="SdDzMsPOg0m-dAoGCJvg-9">
          <mxGeometry x="0.1667" y="30" width="50" height="50" relative="1" as="geometry">
            <mxPoint x="440.5" y="320" as="sourcePoint" />
            <mxPoint x="440" y="240" as="targetPoint" />
            <mxPoint as="offset" />
          </mxGeometry>
        </mxCell>
        <mxCell id="SdDzMsPOg0m-dAoGCJvg-19" value="" style="endArrow=classic;startArrow=classic;html=1;rounded=0;entryX=1;entryY=0.5;entryDx=0;entryDy=0;exitX=0;exitY=0.5;exitDx=0;exitDy=0;" edge="1" parent="1" source="SdDzMsPOg0m-dAoGCJvg-12" target="SdDzMsPOg0m-dAoGCJvg-10">
          <mxGeometry x="0.1667" y="30" width="50" height="50" relative="1" as="geometry">
            <mxPoint x="520" y="110" as="sourcePoint" />
            <mxPoint x="610" y="280" as="targetPoint" />
            <mxPoint as="offset" />
          </mxGeometry>
        </mxCell>
        <mxCell id="SdDzMsPOg0m-dAoGCJvg-21" value="" style="endArrow=classic;html=1;rounded=0;entryX=1.01;entryY=0.6;entryDx=0;entryDy=0;entryPerimeter=0;exitX=0;exitY=0.5;exitDx=0;exitDy=0;" edge="1" parent="1" source="SdDzMsPOg0m-dAoGCJvg-22" target="SdDzMsPOg0m-dAoGCJvg-8">
          <mxGeometry width="50" height="50" relative="1" as="geometry">
            <mxPoint x="560" y="630" as="sourcePoint" />
            <mxPoint x="660" y="660" as="targetPoint" />
          </mxGeometry>
        </mxCell>
        <mxCell id="SdDzMsPOg0m-dAoGCJvg-22" value="&lt;font style=&quot;font-size: 16px;&quot;&gt;Web app running in browser using Wasm.&lt;/font&gt;" style="text;html=1;strokeColor=none;fillColor=none;align=center;verticalAlign=middle;whiteSpace=wrap;rounded=0;" vertex="1" parent="1">
          <mxGeometry x="560" y="617.5" width="170" height="45" as="geometry" />
        </mxCell>
        <mxCell id="SdDzMsPOg0m-dAoGCJvg-28" value="&lt;font style=&quot;font-size: 16px;&quot;&gt;App Service&lt;/font&gt;" style="text;html=1;strokeColor=none;fillColor=none;align=center;verticalAlign=middle;whiteSpace=wrap;rounded=0;" vertex="1" parent="1">
          <mxGeometry x="230" y="60" width="140" height="30" as="geometry" />
        </mxCell>
      </root>
    </mxGraphModel>
  </diagram>
</mxfile>
